<mxfile host="app.diagrams.net" modified="2022-03-11T14:43:24.609Z" agent="5.0 (Macintosh; Intel Mac OS X 10_15_7) AppleWebKit/537.36 (KHTML, like Gecko) Chrome/99.0.4844.51 Safari/537.36" etag="MXSSA83W_jZHehAsUPrn" version="16.6.7" type="github">
  <diagram id="3228e29e-7158-1315-38df-8450db1d8a1d" name="Page-1">
    <mxGraphModel dx="514" dy="699" grid="0" gridSize="10" guides="1" tooltips="1" connect="1" arrows="1" fold="1" page="1" pageScale="1" pageWidth="600" pageHeight="250" background="#EFF1F3" math="0" shadow="0">
      <root>
        <mxCell id="0" />
        <mxCell id="1" parent="0" />
        <mxCell id="23iM9Gp5Ji6-i4gFpPbt-1" value="" style="rounded=1;whiteSpace=wrap;html=1;fillColor=#538AAF;strokeColor=none;" vertex="1" parent="1">
          <mxGeometry x="180" y="195" width="317" height="110" as="geometry" />
        </mxCell>
        <mxCell id="23iM9Gp5Ji6-i4gFpPbt-2" value="" style="rounded=1;whiteSpace=wrap;html=1;fillColor=#9AC7BF;strokeColor=none;" vertex="1" parent="1">
          <mxGeometry x="180" y="8" width="318" height="177" as="geometry" />
        </mxCell>
        <mxCell id="23iM9Gp5Ji6-i4gFpPbt-3" value="&lt;font color=&quot;#ffffff&quot; size=&quot;1&quot;&gt;&lt;b style=&quot;font-size: 22px&quot;&gt;serverå±‚&lt;/b&gt;&lt;/font&gt;" style="text;html=1;strokeColor=none;fillColor=none;align=center;verticalAlign=middle;whiteSpace=wrap;rounded=0;" vertex="1" parent="1">
          <mxGeometry x="287.5" y="14" width="102" height="32" as="geometry" />
        </mxCell>
        <mxCell id="23iM9Gp5Ji6-i4gFpPbt-4" value="" style="rounded=1;whiteSpace=wrap;html=1;fontSize=22;fontColor=#FFFFFF;fillColor=#538AAF;" vertex="1" parent="1">
          <mxGeometry x="202" y="48" width="96" height="40" as="geometry" />
        </mxCell>
      </root>
    </mxGraphModel>
  </diagram>
</mxfile>
